<svg xmlns="http://www.w3.org/2000/svg" xmlns:xlink="http://www.w3.org/1999/xlink" width="3229" height="1649" viewBox="0 0 3229 1649"><path fill="#FEFDFE" d="M828.833 576.676C793.853 557.166 759.033 537.372 724.376 517.295C714.963 511.812 698.986 504.433 691.24 497.716C689.524 496.228 688.915 495.07 688.637 492.875C690.982 492.247 692.652 492.791 694.884 493.533C705.418 497.038 715.354 504.239 724.944 509.802L768.199 534.537L889.956 604.818C905.412 613.897 921.746 622.342 936.758 632.085C939.853 634.094 942.914 636.265 944.538 639.666L943.402 640.673C931.545 639.604 881.536 607.478 866.997 598.842L849.245 588.146C852.412 594.786 856.139 600.933 860.006 607.174C877.976 636.565 894.798 666.725 911.905 696.625C924.605 696.795 983.011 694.094 990.149 699.096C991.45 700.007 991.169 700.207 991.438 701.638C990.978 702.468 990.563 703.254 989.875 703.924C987.686 706.058 984.098 707.265 981.151 707.749C975.014 708.756 967.681 707.785 961.393 707.768L918.13 707.989C925.306 721.951 933.731 735.452 941.613 749.039L992.752 836.454C980.584 860.972 966 884.486 952.32 908.195C952.727 934.471 953.621 961.03 952.381 987.285C935.788 1000.06 894.364 1017.06 882.817 1029.46C875.826 1036.97 856.03 1073.99 849.35 1085.39C873.754 1073.94 975.563 1008.61 991.402 1007.25L991.82 1008.28C988.537 1012.59 983.979 1015.62 979.423 1018.44C930.55 1048.69 879.327 1075.43 829.744 1104.53C799.325 1122.58 768.804 1140.46 738.183 1158.16C725.721 1165.34 712.993 1173.82 700.102 1180.08C697.332 1181.43 694.089 1182.79 690.994 1182.05L690.824 1180.31C692.833 1177.48 695.26 1175.5 698.154 1173.63C713.139 1163.95 729.249 1155.54 744.723 1146.62C772.773 1130.58 800.657 1114.24 828.373 1097.62C806.581 1096.29 783.821 1097.94 761.896 1097.76C739.826 1111.37 715.401 1126.44 691.985 1137.49C680.605 1132.84 669.669 1125.31 659.056 1119.09L607.818 1089.41C549.156 1055.6 489.758 1022.81 431.768 987.881C431.043 887.831 431.047 787.778 431.782 687.729C440.739 681.235 451.016 675.917 460.593 670.39C474.239 662.515 487.791 654.36 501.894 647.324C507.664 635.115 515.188 623.149 521.939 611.443C528.548 599.984 534.812 587.828 542.607 577.133C569.077 575.457 596.365 576.87 622.914 576.97C643.055 565.107 663.248 552.074 684.136 541.609C688.001 539.672 692.145 537.258 696.434 538.682C697.185 540.462 697.256 541.611 696.592 543.484C695.77 545.806 693.763 548.446 691.843 549.968C688.161 552.887 683.007 554.768 678.871 557.088L644.132 576.799C665.34 577.449 686.771 576.785 707.999 576.762L828.833 576.676ZM490.05 665.646C474.226 674.486 458.69 683.868 442.71 692.422L442.215 874.55C442.072 908.766 440.744 943.746 442.472 977.904C497.526 976.764 552.591 976.188 607.657 976.176C629.734 975.957 652.512 977.114 674.497 975.645C676.763 975.493 678.964 975.368 680.477 973.418C685.055 967.514 684.979 961.147 693.528 959.139C698.454 957.982 710.085 957.933 714.274 960.96C719.955 965.066 724.077 975.194 726.753 981.567C722.975 989.183 718.817 997.52 713.013 1003.81C704.473 1004.16 693.395 1006.07 686.563 999.707C683.287 996.656 680.826 991.418 679.229 987.303C603.996 986.918 528.762 988.988 453.532 989.173C473.869 999.653 493.279 1011.91 513.165 1023.21L650.37 1101.62C664.402 1109.63 678.133 1118.57 692.415 1126.09C709.092 1117.64 724.126 1106.17 740.973 1097.79C733.751 1097.59 726.881 1096.84 719.917 1099.09L718.164 1100.86L718.305 1101.55C718.644 1103.25 718.885 1104.58 718.596 1106.33C713.229 1110.9 684.769 1109.7 677.227 1109.12C674.089 1108.88 669.861 1108.22 667.68 1105.69C663.287 1100.57 666.601 1082.55 667.013 1075.87C675.698 1075.74 711.594 1073.29 716.88 1078.36C717.937 1081.36 718.343 1084.06 718.66 1087.22C730.936 1086.96 745.695 1089.49 757.515 1086.99C768.561 1084.66 781.3 1075.1 791.003 1069.47C817.888 1053.89 848.449 1033.52 876.339 1021.56C881.991 1004.2 900.638 976.414 910.511 959.422C920.894 941.55 930.722 922.013 942.811 905.312C942.445 891.44 942.34 877.563 942.495 863.687C939.635 863.29 932.435 862.97 930.883 860.231C928.038 855.21 929.305 820.009 929.987 812.801C931.893 810.792 933.691 810.619 936.28 810.136C936.537 810.177 936.793 810.221 937.05 810.259C943.146 811.145 956.198 808.885 960.557 813.186C962.585 820.348 963.977 854.666 961.096 860.371C959.581 863.371 956.144 862.109 953.997 864.038C951.934 865.891 952.425 879.392 952.782 882.612L953.628 883.446C959.369 878.367 969.65 857.104 973.519 849.755C976.308 845.947 978.533 841.407 980.883 837.295C978.239 832.493 975.68 827.663 972.531 823.167C968.772 815.54 963.967 808.249 959.524 801C951.858 786.156 942.749 771.854 934.394 757.374C924.943 740.996 915.886 723.988 905.611 708.128C838.923 707.655 772.09 708.418 705.426 707.106C701.173 714.988 698.024 722.2 688.498 724.726C682.724 726.256 676.608 725.134 671.601 721.937C664.198 717.211 660.268 709.049 657.369 701.067C661.272 693.744 665.259 686.654 669.8 679.696C678.274 678.339 687.754 676.306 695.232 681.759C699.716 685.03 702.259 691.118 704.687 695.955C747.72 695.911 790.752 696.085 833.783 696.477C855.539 696.604 877.461 697.249 899.204 696.541C878.428 660.458 857.165 624.559 837.032 588.117C766.278 588.228 695.435 588.837 624.689 587.921C609.951 596.581 512.581 651.298 508.825 656.095C500.744 666.419 480.95 712.87 469.622 714.438L467.846 713.416C465.922 702.824 485.446 676.714 490.05 665.646ZM679.642 689.731C674.018 691.125 670.095 696.207 670.17 702C670.219 705.771 671.972 709.318 674.938 711.647C677.904 713.976 681.765 714.839 685.441 713.992C691.043 712.702 695.037 707.75 695.113 702.002C695.164 698.138 693.421 694.468 690.392 692.066C687.364 689.664 683.394 688.802 679.642 689.731ZM896.677 1007.91C911.815 999.395 926.894 990.781 941.914 982.064C942.035 974.35 943.962 932.115 941.027 928.945C932.21 942.054 924.508 955.999 916.511 969.619C909.446 981.653 901.894 993.554 895.624 1006.02C896.255 1007.71 895.762 1007.19 896.677 1007.91ZM520.964 635.643C533.212 629.988 544.873 622.333 556.513 615.5C572.307 606.013 588.259 596.794 604.362 587.845C585.406 587.854 566.24 587.292 547.309 588.013C538.963 604.143 529.53 619.646 520.964 635.643ZM699.439 969.3C695.013 970.083 691.368 973.221 689.936 977.481C688.504 981.741 689.514 986.443 692.568 989.74C695.622 993.037 700.234 994.403 704.591 993.3C710.998 991.679 714.973 985.278 713.586 978.816C712.198 972.354 705.947 968.149 699.439 969.3ZM676.574 1098.49C685.925 1098.62 701.336 1100.82 709.734 1097.35L710.57 1095.45C710.26 1095.16 709.942 1094.88 709.64 1094.59C708.245 1093.23 708.017 1091.76 707.561 1089.93C705.169 1087.09 701.761 1086.39 698.167 1086.11C691.083 1085.56 683.664 1086.62 676.529 1086.74C676.491 1090.63 676.27 1094.61 676.574 1098.49ZM940.358 822.185C940.056 830.797 938 844.213 940.772 852.253C944.476 853.492 947.943 853.238 951.786 853.14C951.827 844.227 953.919 830.649 949.22 823.064C945.996 821.487 943.821 821.994 940.358 822.185ZM837.264 1087.47C841.512 1079.22 862.427 1046.38 862.829 1039.96C854.296 1045.02 784.384 1084.6 783.333 1085.77C783.014 1086.12 782.985 1086.65 782.811 1087.09L783.36 1087.73C801.291 1087.61 819.352 1088 837.264 1087.47Z" transform="scale(1.01033 1.01042)"/><path fill="#FEFDFE" d="M631.517 731.925C651.246 730.926 671.334 731.62 691.102 731.606C711.496 731.592 732.157 730.876 752.508 732.148C763.452 744.986 771.567 763.402 779.991 778.16C791.235 797.856 804.113 817.68 813.632 838.235C804.466 856.511 793.311 873.963 783.168 891.733C773.715 908.293 765.093 926.402 753.743 941.717C738.331 943.622 722.143 942.786 706.624 942.782L632.239 942.582C625.092 933.377 619.433 922.407 613.602 912.332C599.129 887.327 585.807 861.485 570.765 836.857C576.942 827.577 582.163 817.314 587.788 807.659C602.456 782.481 616.616 756.958 631.517 731.925ZM582.589 838.179C592.886 853.04 601.262 869.648 610.266 885.331C619.296 901.059 629.369 916.689 636.995 933.143C662.39 933.02 687.785 933.055 713.18 933.248C723.038 933.294 738.773 935.035 747.852 932.807C764.63 901.695 782.343 867.356 801.863 838.097C784.882 805.762 765.188 774.561 747.316 742.669L674.792 742.694C662.554 742.684 649.471 741.756 637.328 742.966C620.186 775.219 600.569 806.355 582.589 838.179Z" transform="scale(1.01033 1.01042)"/><path fill="#FEFDFE" fill-opacity=".988" d="M649.437 761.238C677.85 761.246 706.442 760.588 734.829 761.698C742.718 770.356 748.377 782.401 754.196 792.563L779.727 837.282C772.732 851.063 764.427 864.449 756.745 877.875C750.065 889.549 743.785 902.48 735.575 913.098C706.819 914.039 677.79 913.221 649.015 912.948C632.952 889.181 618.828 862.877 604.94 837.764C615.007 820.771 624.63 803.488 634.484 786.369C639.301 778 643.823 769.097 649.437 761.238ZM613.074 838.476C626.399 860.92 639.275 883.628 651.694 906.586C678.34 906.848 706.119 908.086 732.68 906.338C745.746 883.968 757.243 859.294 771.936 838.069C758.721 815.158 745.307 792.313 732.484 769.183L652.399 768.911C640.945 787.044 621.268 819.441 613.074 838.476Z" transform="scale(1.01033 1.01042)"/><path fill="#FEFDFE" d="M694.198 790.953C695.835 789.461 698.155 788.977 700.252 789.69C702.349 790.404 703.893 792.201 704.281 794.382C704.669 796.563 703.841 798.783 702.119 800.176C699.562 802.245 695.823 801.906 693.68 799.41C691.537 796.915 691.766 793.168 694.198 790.953Z" transform="scale(1.01033 1.01042)"/><path fill="#FEFDFE" fill-opacity=".988" d="M714.48 799.58C716.323 798.467 718.623 798.436 720.495 799.5C722.366 800.564 723.516 802.557 723.502 804.71C723.487 806.863 722.309 808.839 720.423 809.878C717.588 811.439 714.024 810.444 712.406 807.641C710.788 804.837 711.71 801.255 714.48 799.58Z" transform="scale(1.01033 1.01042)"/><path fill="#FEFDFE" fill-opacity=".984" d="M728.088 836.571C731.58 836.467 735.066 836.156 737.828 838.617C739.156 841.462 738.593 843.625 738.104 846.644C734.577 846.559 730.698 846.963 727.926 844.515C726.787 841.582 727.408 839.568 728.088 836.571Z" transform="scale(1.01033 1.01042)"/><path fill="#FEFDFE" fill-opacity=".961" d="M728.532 816.654C730.241 816.703 732.388 816.58 733.929 817.386C735.692 818.308 735.718 819.101 736.306 820.856C735.649 824.017 734.177 825.227 731.847 827.361C730.617 827.191 729.192 827.064 728.034 826.612C725.906 825.782 725.381 824.564 724.602 822.575C725.447 819.386 726.229 818.894 728.532 816.654Z" transform="scale(1.01033 1.01042)"/><path fill="#FEFDFE" fill-opacity=".98" d="M659.78 805.232C662.673 804.512 665.608 806.247 666.372 809.129C667.135 812.011 665.444 814.973 662.573 815.779C660.678 816.311 658.643 815.781 657.248 814.392C655.853 813.003 655.315 810.97 655.839 809.073C656.364 807.176 657.869 805.708 659.78 805.232Z" transform="scale(1.01033 1.01042)"/><path fill="#FEFDFE" d="M621.802 682.326C627.467 681.849 634.614 680.817 640.024 682.902C648.095 686.013 651.235 695.032 654.621 702.272C650.802 709.866 647.563 716.749 640.987 722.305C635.566 723.161 628.639 724.168 623.399 722.228C615.051 719.136 611.839 710.054 608.295 702.676C611.357 694.897 614.053 686.527 621.802 682.326ZM636.356 711.243C641.18 708.641 643.122 702.719 640.777 697.766C638.432 692.813 632.619 690.563 627.55 692.646C624.026 694.093 621.589 697.368 621.213 701.159C620.837 704.95 622.584 708.639 625.755 710.75C628.926 712.862 633.003 713.051 636.356 711.243Z" transform="scale(1.01033 1.01042)"/><path fill="#FEFDFE" d="M571.625 684.168C577.087 683.647 582.362 683.891 587.831 684.196C594.967 689.473 597.437 694.251 601.15 702.147C597.748 709.435 595.192 715.457 588.421 720.248C583.443 720.844 577.007 721.676 572.268 719.775C564.736 716.754 562.149 709.117 559.009 702.316C562.057 695.064 564.795 688.611 571.625 684.168Z" transform="scale(1.01033 1.01042)"/><path fill="#FEFDFE" d="M519.443 687.155C524.985 686.684 531.601 685.719 536.81 688.029C542.901 690.732 545.11 696.788 547.407 702.551C545.12 708.692 541.823 713.63 537.854 718.789C531.937 719.364 526.343 719.007 520.461 718.296C520.087 717.953 519.708 717.617 519.34 717.268C515.211 713.356 511.513 708.234 511.499 702.337C511.485 696.648 515.483 690.938 519.443 687.155Z" transform="scale(1.01033 1.01042)"/><path fill="#FEFDFE" d="M721.009 668.061C748.736 666.924 776.811 667.721 804.585 667.71C818.014 667.705 840.161 665.725 852.731 668.63C854.363 670.813 854.099 670.859 853.776 673.605C836.723 675.988 817.502 674.539 800.188 674.697C774.895 674.927 748.944 676.346 723.714 674.855C721.287 672.861 721.575 671.084 721.009 668.061Z" transform="scale(1.01033 1.01042)"/><path fill="#FEFDFE" d="M703.504 652.346C713.738 652.282 762.914 650.458 768.942 652.708C769.654 652.974 770.076 653.719 770.642 654.224C770.71 656.734 770.568 656.79 769.064 658.827L765.25 659.236C753.12 659.34 705.49 661.893 697.124 657.542L696.559 655.72C698.914 653.242 700.26 653.216 703.504 652.346Z" transform="scale(1.01033 1.01042)"/><path fill="#151414" fill-opacity=".02" d="M678.993 1030.55C674.896 1030.45 671.07 1031.36 667.024 1031.53C664.59 1031.63 661.084 1031.83 659.26 1030.25C660.622 1029.08 662.233 1028.81 663.929 1028.29C662.245 1027.2 661.038 1026.05 659.642 1024.63L660.136 1022.99C666.598 1019.14 671.957 1021.3 678.913 1021.55C679.216 1024.47 679.916 1027.72 678.993 1030.55Z" transform="scale(1.01033 1.01042)"/><path fill="#151414" fill-opacity=".02" d="M554.713 1021.19C563.24 1019.85 567.234 1023.02 574.143 1022.49C573.788 1025.8 573.313 1028.53 571.989 1031.6L569.993 1030.35L569.68 1027.69L568.87 1027.44C568.247 1030.25 568.4 1031.3 566.186 1033.24L562.115 1033.32C563.061 1030.41 564.012 1026.5 562.711 1023.66C560.021 1021.54 557.986 1021.64 554.713 1021.19Z" transform="scale(1.01033 1.01042)"/><path fill="#FEFDFE" fill-opacity=".902" d="M594.925 1021.75C598.897 1021.57 601.617 1021.27 604.959 1023.58C606.093 1026.56 605.252 1029.19 604.641 1032.21C600.804 1032.59 597.902 1032.97 594.576 1030.87C593.298 1027.87 594.319 1024.83 594.925 1021.75Z" transform="scale(1.01033 1.01042)"/><path fill="#FEFDFE" d="M574.143 1022.49C576.888 1021.78 578.725 1021.32 581.524 1021.94C583.641 1023.88 583.769 1024.49 584.595 1027.13C583.813 1029.99 583.609 1030.39 581.46 1032.43C577.916 1033.44 575.429 1032.67 571.989 1031.6C573.313 1028.53 573.788 1025.8 574.143 1022.49Z" transform="scale(1.01033 1.01042)"/><path fill="#FEFDFE" d="M554.713 1021.19C557.986 1021.64 560.021 1021.54 562.711 1023.66C564.012 1026.5 563.061 1030.41 562.115 1033.32L555.433 1032.61C553.18 1030.82 552.819 1030.66 551.915 1027.78C552.508 1025.1 553.122 1023.44 554.713 1021.19Z" transform="scale(1.01033 1.01042)"/><path fill="#FEFDFE" fill-opacity=".961" d="M723.798 1020.59C725.52 1019.26 727.837 1018.99 729.82 1019.88C731.804 1020.78 733.131 1022.7 733.269 1024.87C733.408 1027.04 732.336 1029.11 730.482 1030.25C727.818 1031.9 724.336 1031.16 722.556 1028.59C720.777 1026.02 721.322 1022.5 723.798 1020.59Z" transform="scale(1.01033 1.01042)"/><path fill="#FEFDFE" d="M766.356 1019.47C769.056 1017.95 772.473 1018.8 774.15 1021.41C775.828 1024.01 775.186 1027.47 772.685 1029.3C770.93 1030.59 768.606 1030.79 766.652 1029.84C764.698 1028.88 763.435 1026.92 763.373 1024.74C763.311 1022.57 764.459 1020.54 766.356 1019.47Z" transform="scale(1.01033 1.01042)"/><path fill="#FEFDFE" fill-opacity=".988" d="M743.299 1020.31C745.341 1020.1 747.579 1019.75 749.626 1019.84C751.955 1019.95 752.704 1020.96 754.013 1022.69C754.047 1025.32 753.693 1027.36 753 1029.89C749.151 1030.13 746.618 1030.35 743.295 1028.33C742.066 1025.42 742.688 1023.32 743.299 1020.31Z" transform="scale(1.01033 1.01042)"/><path fill="#FEFDFE" fill-opacity=".961" d="M678.913 1021.55C682.294 1021.18 685.41 1020.36 688.446 1022.23C690.108 1024.64 690.391 1024.68 690.124 1027.75C688.394 1029.68 687.47 1030.98 684.614 1031.08C682.782 1031.14 680.812 1030.79 678.993 1030.55C679.916 1027.72 679.216 1024.47 678.913 1021.55Z" transform="scale(1.01033 1.01042)"/><path fill="#FEFDFE" fill-opacity=".925" d="M699.792 1024.78C700.156 1022.15 702.182 1020.07 704.798 1019.62C707.414 1019.18 710.017 1020.48 711.229 1022.84C712.441 1025.2 711.983 1028.07 710.097 1029.94L709.521 1027.94C706.78 1025.46 703.379 1025.59 699.792 1024.78Z" transform="scale(1.01033 1.01042)"/><path fill="#FEFDFE" fill-opacity=".816" d="M699.792 1024.78C703.379 1025.59 706.78 1025.46 709.521 1027.94L710.097 1029.94C708.243 1031.78 705.427 1032.22 703.095 1031.06C700.763 1029.89 699.434 1027.37 699.792 1024.78Z" transform="scale(1.01033 1.01042)"/><path fill="#151414" fill-opacity=".008" d="M941.027 928.945C943.962 932.115 942.035 974.35 941.914 982.064C926.894 990.781 911.815 999.395 896.677 1007.91C895.762 1007.19 896.255 1007.71 895.624 1006.02C901.894 993.554 909.446 981.653 916.511 969.619C924.508 955.999 932.21 942.054 941.027 928.945Z" transform="scale(1.01033 1.01042)"/><path fill="#151414" fill-opacity=".129" d="M959.524 801C963.967 808.249 968.772 815.54 972.531 823.167L971.728 822.683C969.235 821.153 967.307 819.628 965.304 817.504L965.943 856.067C968.28 853.836 970.601 851.197 973.519 849.755C969.65 857.104 959.369 878.367 953.628 883.446L952.782 882.612C952.425 879.392 951.934 865.891 953.997 864.038C956.144 862.109 959.581 863.371 961.096 860.371C963.977 854.666 962.585 820.348 960.557 813.186C956.198 808.885 943.146 811.145 937.05 810.259C936.793 810.221 936.537 810.177 936.28 810.136C942.665 808.31 948.799 810.72 955.07 810.132C957.454 809.908 958.521 808.986 960.037 807.283L959.524 801Z" transform="scale(1.01033 1.01042)"/><path fill="#151414" fill-opacity=".008" d="M699.439 969.3C705.947 968.149 712.198 972.354 713.586 978.816C714.973 985.278 710.998 991.679 704.591 993.3C700.234 994.403 695.622 993.037 692.568 989.74C689.514 986.443 688.504 981.741 689.936 977.481C691.368 973.221 695.013 970.083 699.439 969.3Z" transform="scale(1.01033 1.01042)"/><path fill="#151414" fill-opacity=".016" d="M1835.48 582.496C1836.41 582.343 1837.26 582.265 1838.2 582.334C1844.83 582.818 1854.17 580.028 1860.04 583.78C1862.3 585.223 1863.27 587.842 1863.58 590.392C1864.41 597.174 1863.12 604.631 1862.94 611.49C1862.65 622.531 1862.98 633.652 1862.98 644.702L1862.97 810.911C1862.97 833.844 1860.87 869.676 1864.09 890.843C1869.37 893.677 2023.88 892.01 2043.25 892C2047.72 884.284 2044.12 747.584 2044.94 724.241C2045.04 721.299 2045.12 715.39 2047.25 713.411C2055.74 713.569 2074.59 711.652 2080.99 717.573C2081.23 720.533 2080.8 722.051 2079.79 724.778C2077.79 730.214 2076.64 800.854 2078.57 804.975C2080.42 804.952 2081.12 804.863 2082.81 805.706C2083.02 814.6 2085.21 835.337 2082.21 842.688L2078.5 842.952C2078.33 843.43 2078.08 843.888 2077.98 844.387C2077.22 848.076 2077.7 907.778 2078.71 910.253C2079.19 911.417 2082.07 913.974 2083.01 915.018L2081.72 917.908C2080.37 920.892 2079.69 922.484 2080.01 925.796C2081.34 926.601 2082.09 927.186 2082.99 928.46C2082.47 929.71 2082.24 930.124 2081.07 930.914C2080.77 931.116 2080.45 931.287 2080.14 931.474L2080.21 933.805L2082.67 935.374C2082.7 938.516 2081.56 937.362 2080.1 939.833L2082.77 941.752C2084.01 958.078 2083.02 975.235 2083.03 991.661C2083.03 1010.45 2083.92 1029.58 2082.86 1048.31C2082.55 1053.82 2080.56 1073.26 2078.25 1077.51C2080.1 1081.94 2083.23 1084.68 2082.42 1089.76C2082.09 1089.97 2081.76 1090.2 2081.42 1090.4C2074.95 1094.08 2053.2 1092.53 2046.09 1090.7C2044.04 1090.17 2044.15 1089.97 2043.06 1088.16C2043.27 1087.55 2043.46 1086.93 2043.62 1086.31C2047.29 1072.81 2045.09 1009.2 2045.08 991.416C2045.07 969.832 2046.64 946.875 2044.83 925.427C2044.68 923.651 2044.11 922.52 2043.25 921L1861.25 920C1861.75 920.888 1862.07 921.337 1862.38 922.262C1864.33 928.054 1863.73 1069.87 1862.89 1086.52C1862.78 1088.73 1862.34 1090.08 1861.25 1092C1854.64 1092.04 1836.97 1094.07 1831.56 1090.19C1827.37 1087.18 1831.54 967.124 1829.7 951.385C1828.03 951.239 1826.73 951.064 1825.18 950.443C1824.55 940.437 1824.18 929.251 1825.33 919.304C1826.98 919.175 1828.26 919.017 1829.8 918.404C1831.15 888.863 1830 858.772 1830 829.18L1829.98 658.539C1829.98 646.645 1828.42 593.614 1830.16 586.402C1830.76 583.881 1833.39 583.432 1835.48 582.496ZM2072.61 1086.96C2076.2 1087.07 2078.68 1088.8 2081.83 1088.28L2081.96 1087.32C2080.19 1083.95 2078.98 1081.43 2078.97 1077.53C2078.96 1071.29 2077.9 1064.37 2079.34 1058.3L2081.72 1057.77C2083.75 1042.52 2082.04 1022.47 2082.05 1006.77C2082.05 988.725 2083.94 959.193 2081.34 942.088L2079.2 941.704L2078.62 940.448C2079.6 939.054 2080.54 937.656 2081.44 936.203C2079.81 933.777 2078.98 932.332 2078.77 929.395C2080.07 929.085 2080.56 929.038 2081.59 928.125L2079.45 927.855C2077.97 925.146 2078.81 919.386 2079.32 916.315L2081.79 915.818L2080.74 913.93C2079.55 913.335 2077.39 912.35 2077.04 910.873C2075.49 904.285 2076.91 893.145 2076.92 886.195L2077.05 808.739C2077.07 793.059 2078.21 776.45 2075.78 760.937C2075.4 758.485 2074.6 756.883 2073.03 754.994C2076.31 764.171 2074.16 913.99 2074.16 936.093L2074.28 1031.84C2074.29 1048.15 2074.92 1064.76 2074.13 1081.03C2074.04 1082.83 2073.79 1084.58 2073.02 1086.23C2072.9 1086.48 2072.74 1086.72 2072.61 1086.96ZM2077.65 806.476C2078.07 811.891 2076.9 838.052 2078.32 840.387C2078.74 841.069 2079.49 841.474 2080.07 842.018C2083.52 837.229 2083.21 815.253 2081.83 808.919C2081.55 807.628 2081.47 807.564 2081.01 806.532L2077.65 806.476ZM1827.62 949.539C1829.95 943.657 1830.66 927.051 1828.38 921.241C1828.28 920.995 1828.14 920.771 1828.02 920.536L1824.62 920.461C1827.67 927.946 1823.56 944.671 1826.83 949.65L1827.62 949.539ZM2050.32 893.838C2038.44 891.754 2007.44 893.432 1993.62 893.436C1949.01 893.447 1904.36 893.105 1859.75 893.709C1862.89 898.666 1861.72 906.143 1861.58 911.83L1861.33 672.425L1861.36 609.096C1861.35 603.399 1862.5 594.934 1861.29 589.481C1861.08 588.539 1860.8 588.266 1860.29 587.572L1855.72 587.017C1856.27 587.865 1857.02 588.61 1857.36 589.56C1859.19 594.649 1857.78 660.046 1857.78 669.842L1857.77 964.475L1857.93 1047.82C1857.95 1059.27 1859.49 1072.83 1857.72 1084C1857.44 1085.78 1856.92 1086.72 1855.7 1087.98C1857.65 1088.29 1858.82 1088.37 1860.74 1087.83C1863.08 1080.9 1861.45 1047.73 1861.45 1038.57L1861.36 918.143C1873.45 918.972 1885.82 918.487 1897.95 918.492L1962.16 918.506L2018.57 918.541C2029.06 918.542 2039.92 919.109 2050.36 918.161L2049.87 917.235C2046.27 915.541 1884.99 916.639 1865.11 916.283C1865.66 915.38 1866.12 914.611 1866.38 913.574C1867.68 908.308 1867.63 900.424 1865.12 895.569L1987.47 895.485C2006.67 895.48 2026.35 896.519 2045.46 895.535C2048.06 895.402 2048.57 895.746 2050.32 893.838Z" transform="scale(1.01033 1.01042)"/><path fill="#FEFDFE" d="M2050.74 718.615C2058.1 718.229 2065.34 718.045 2072.68 718.809C2072.9 719.201 2073.13 719.585 2073.34 719.985C2075.63 724.434 2074.78 750.022 2073.03 754.994C2076.31 764.171 2074.16 913.99 2074.16 936.093L2074.28 1031.84C2074.29 1048.15 2074.92 1064.76 2074.13 1081.03C2074.04 1082.83 2073.79 1084.58 2073.02 1086.23C2072.9 1086.48 2072.74 1086.72 2072.61 1086.96L2071.63 1087.93C2064.79 1089.13 2057.27 1088.45 2050.34 1088.36C2050.94 1087.35 2051.05 1087.3 2051.42 1085.97C2053.56 1078.44 2051.71 1045.5 2051.7 1034.65C2051.65 997.819 2052.7 960.788 2051.77 923.977C2051.71 921.615 2051.45 920.26 2050.36 918.161L2049.87 917.235C2046.27 915.541 1884.99 916.639 1865.11 916.283C1865.66 915.38 1866.12 914.611 1866.38 913.574C1867.68 908.308 1867.63 900.424 1865.12 895.569L1987.47 895.485C2006.67 895.48 2026.35 896.519 2045.46 895.535C2048.06 895.402 2048.57 895.746 2050.32 893.838C2050.51 893.483 2050.73 893.137 2050.91 892.772C2051.72 891.121 2053.44 725.221 2050.74 718.615Z" transform="scale(1.01033 1.01042)"/><path fill="#FEFDFE" d="M1835.04 586.638C1841.93 586.381 1848.89 585.838 1855.72 587.017C1856.27 587.865 1857.02 588.61 1857.36 589.56C1859.19 594.649 1857.78 660.046 1857.78 669.842L1857.77 964.475L1857.93 1047.82C1857.95 1059.27 1859.49 1072.83 1857.72 1084C1857.44 1085.78 1856.92 1086.72 1855.7 1087.98C1848.96 1089.11 1841.76 1088.5 1834.94 1088.37C1835.06 1088.17 1835.2 1087.99 1835.29 1087.78C1836.11 1086.02 1836.17 1083.94 1836.18 1082.03L1835.88 699.262C1835.85 683.897 1837.96 593.757 1835.04 586.638Z" transform="scale(1.01033 1.01042)"/><path fill="#212120" fill-opacity=".118" d="M1855.72 587.017L1860.29 587.572C1860.8 588.266 1861.08 588.539 1861.29 589.481C1862.5 594.934 1861.35 603.399 1861.36 609.096L1861.33 672.425L1861.58 911.83C1861.72 906.143 1862.89 898.666 1859.75 893.709C1904.36 893.105 1949.01 893.447 1993.62 893.436C2007.44 893.432 2038.44 891.754 2050.32 893.838C2048.57 895.746 2048.06 895.402 2045.46 895.535C2026.35 896.519 2006.67 895.48 1987.47 895.485L1865.12 895.569C1867.63 900.424 1867.68 908.308 1866.38 913.574C1866.12 914.611 1865.66 915.38 1865.11 916.283C1884.99 916.639 2046.27 915.541 2049.87 917.235L2050.36 918.161C2039.92 919.109 2029.06 918.542 2018.57 918.541L1962.16 918.506L1897.95 918.492C1885.82 918.487 1873.45 918.972 1861.36 918.143L1861.45 1038.57C1861.45 1047.73 1863.08 1080.9 1860.74 1087.83C1858.82 1088.37 1857.65 1088.29 1855.7 1087.98C1856.92 1086.72 1857.44 1085.78 1857.72 1084C1859.49 1072.83 1857.95 1059.27 1857.93 1047.82L1857.77 964.475L1857.78 669.842C1857.78 660.046 1859.19 594.649 1857.36 589.56C1857.02 588.61 1856.27 587.865 1855.72 587.017Z" transform="scale(1.01033 1.01042)"/><path fill="#FEFDFE" d="M2578.4 589.499C2589.61 587.396 2602.66 588.559 2614.04 588.651C2657.7 589.004 2692.18 590.915 2731.26 612.618C2782.5 641.077 2819.16 692.096 2835.11 748.026C2842.8 774.965 2844.18 800.739 2844.15 828.623C2844.09 888.253 2838.43 927.483 2808.69 980.654C2788.72 1016.38 2751.42 1061.3 2710.58 1072.79C2710.61 1072.27 2710.68 1071.76 2710.68 1071.24C2710.63 1067.18 2706.39 1059.48 2703.71 1056.51C2729.9 1045.67 2753.23 1024.15 2770.82 1002.43C2817.42 944.887 2831.88 868.71 2824.25 796.501C2820.58 761.77 2810.7 728.772 2792.86 698.618C2789.53 692.994 2785.52 685.587 2780.41 681.469C2777.95 673.426 2767.24 664.147 2761.23 658.17C2712.69 609.876 2661.75 608.803 2598.14 608.934C2598.57 609.694 2598.67 609.779 2598.93 610.759C2600.96 618.327 2599.37 630.489 2599.39 638.611L2599.51 714.332C2599.7 828.671 2601.11 943.202 2599.37 1057.52C2599.31 1061.21 2599.48 1064.23 2597.74 1067.6C2625.49 1068.11 2655.06 1068.57 2682.34 1063.36C2683.09 1064.1 2683.77 1064.77 2684.31 1065.67C2686.4 1069.18 2688.95 1077.82 2687.84 1081.82C2667.04 1091.9 2602.03 1088.54 2577.23 1088.04C2580.78 1081.83 2578.65 1014.55 2578.63 1002.78L2578.7 704.679L2578.92 625.408C2578.96 614.2 2580.51 600.449 2578.4 589.499Z" transform="scale(1.01033 1.01042)"/><path fill="#FEFDFE" d="M2154.44 1088.06C2154.6 1087.9 2154.77 1087.75 2154.93 1087.59C2160.79 1081.55 2180.79 1014.39 2184.63 1002.95L2280.43 716.095L2309.41 629.664C2313.67 616.902 2317.17 601.824 2322.87 589.763C2323.86 587.669 2324.57 586.927 2326.8 586.509C2329.51 589.935 2330.94 594.059 2332.4 598.14C2347.41 640.005 2360.78 682.619 2374.92 724.793L2450.41 948.917C2455.43 963.833 2495.69 1078.54 2495.52 1085.08C2495.5 1086.1 2495.22 1086.91 2494.94 1087.86C2486.18 1088.3 2477.46 1088.22 2468.68 1088.12C2469.34 1081.58 2438.23 993.605 2434.72 983.037L2349.83 724.242C2347.29 716.524 2335.86 676.441 2333.02 672.631C2332.67 672.157 2331.87 671.513 2331.47 671.171C2331.57 670.885 2331.69 670.609 2331.75 670.314C2332.75 664.978 2327.95 653.784 2324.98 649.318C2325.02 649.608 2325.1 649.894 2325.11 650.186C2325.25 654.528 2320.82 665.079 2317.98 668.167C2319.17 674.473 2291.26 755.054 2286.96 768.172L2207.86 1009.96C2203.65 1022.83 2186.69 1079.53 2182.45 1085.85C2181.9 1086.67 2181.2 1087.32 2180.49 1087.99C2171.77 1088.38 2163.16 1088.29 2154.44 1088.06Z" transform="scale(1.01033 1.01042)"/><path fill="#FEFDFE" d="M1637.39 588.466C1654.48 587.313 1673.35 588.991 1689.39 595.056C1698.6 598.535 1723.49 611.52 1727.41 620.211C1725.68 626.092 1718.38 634.792 1713.24 638.112C1712.82 637.07 1712.47 636.171 1711.77 635.275C1700.4 620.721 1677.56 610.8 1659.59 608.582C1638.44 605.972 1616.27 608.604 1599.19 622.212C1584.08 634.246 1576.56 651.706 1574.38 670.57C1572.35 688.139 1573.65 708.413 1580.91 724.725C1600.71 769.153 1681.96 826.991 1716.29 870.813C1723.9 880.523 1747.08 913.147 1745.72 924.488C1748.8 927.838 1749.91 935.105 1750.8 939.467C1753.6 953.159 1756.29 997.897 1748.58 1009.7C1740.45 1009.89 1732.31 1009.95 1724.18 1009.88C1724.35 1009.67 1724.52 1009.48 1724.68 1009.27C1731.95 999.648 1731.07 981.131 1730.92 969.354C1729.28 845.052 1564.33 806.87 1552.46 700.496C1549.33 672.426 1553.08 643.72 1571.22 621.146C1588.08 600.177 1611.4 591.412 1637.39 588.466Z" transform="scale(1.01033 1.01042)"/><path fill="#FEFDFE" d="M1348.72 597.612C1355.69 597.488 1362.74 597.135 1369.68 597.837L1369.5 927.507L1369.2 1027.17C1369.18 1043.81 1369.9 1060.71 1369.11 1077.31C1368.94 1080.82 1368.68 1084.12 1367.3 1087.4C1365.65 1087.5 1365.63 1087.86 1364.3 1086.66C1359.49 1082.35 1298.25 963.89 1294.27 953.651L1316.74 953.778C1327.15 974.033 1338.04 994.804 1346.26 1016.04C1347.17 1018.14 1347.77 1019.73 1349.63 1021.2C1350.89 1019.03 1349.11 959.707 1349.08 951.671L1348.81 725.142C1348.84 682.658 1349.48 640.085 1348.72 597.612Z" transform="scale(1.01033 1.01042)"/><path fill="#FEFDFE" d="M1127.79 585.86C1130.06 586.859 1131.38 588.041 1132.83 590.019C1141.34 601.632 1147.49 616.656 1154.21 629.463C1170.23 660.084 1186.06 690.803 1201.7 721.619C1194.52 722.122 1187.21 721.876 1180.01 721.898C1166.34 699.518 1158.57 673.957 1145.25 651.619C1147.87 690.253 1146.9 729.28 1146.96 768.002L1146.88 955.5L1146.99 1078L1126.93 1077.89L1127.08 729.962L1127.02 635.403C1127 619.39 1125.65 601.696 1127.79 585.86Z" transform="scale(1.01033 1.01042)"/><path fill="#FEFDFE" d="M1453.63 586.392C1458.52 586.178 1463.41 586.433 1468.3 586.608C1470.6 687.699 1469.06 789.253 1468.93 890.383L1468.79 1015.46C1468.76 1037.19 1469.59 1059.34 1468.53 1081.03C1468.36 1084.39 1468.09 1085.68 1465.92 1088.27C1461.26 1088.36 1456.56 1088.13 1451.9 1088.02L1451.46 766.366L1451.39 654.22C1451.38 633.97 1450.67 613.302 1451.79 593.098C1451.94 590.351 1451.82 588.56 1453.63 586.392Z" transform="scale(1.01033 1.01042)"/><path fill="#FEFDFE" d="M2292.04 946.5C2299.05 945.677 2306.19 945.844 2313.24 945.777C2314.99 947.652 2315.72 949.899 2316.47 952.307C2320.78 966.176 2352.71 1082.12 2352.2 1085.45C2352.08 1086.21 2351.49 1086.82 2351.14 1087.5C2344.73 1089.48 2335.51 1088.26 2328.77 1088.13C2330.48 1081.54 2295.67 963.389 2292.04 946.5Z" transform="scale(1.01033 1.01042)"/><path fill="#FEFDFE" d="M1714.47 1033.5C1722.15 1033.16 1729.84 1033.28 1737.5 1033.86C1737.63 1034.79 1737.75 1035.19 1737.67 1036.08C1736.98 1043.49 1724.98 1055.88 1719.6 1060.74C1694.83 1083.09 1664.04 1088.54 1631.75 1086.94C1625.62 1086.86 1619.45 1085.51 1613.41 1084.48C1613.09 1077.44 1613.27 1070.3 1613.22 1063.24C1629.8 1066.22 1646.14 1067.41 1662.89 1064.73C1684.73 1061.24 1701.5 1051.29 1714.47 1033.5Z" transform="scale(1.01033 1.01042)"/><path fill="#FEFDFE" fill-opacity=".984" d="M391.675 1011.04C390.427 966.986 391.559 922.604 391.692 878.522C391.714 871.068 390.193 842.939 392.051 837.205C392.605 835.495 393.297 835.62 394.813 834.831L396.677 835.609C401.187 844.138 398.516 864.988 398.938 875.31C398.76 889.694 397.442 1001.99 399.247 1006.26C399.334 1006.46 400.239 1007.55 400.497 1007.81C401.763 1009.1 403.621 1009.9 405.209 1010.72C436.703 1028.01 467.598 1046.53 498.588 1064.72C512.402 1072.82 527.482 1080.15 540.748 1089.04C543.465 1090.86 545.924 1092.67 547.606 1095.53L546.825 1096.86C543.647 1097.23 540.849 1097.01 537.911 1095.63C523.112 1088.63 506.878 1077.5 492.328 1069.08L391.675 1011.04Z" transform="scale(1.01033 1.01042)"/><path fill="#151414" fill-opacity=".016" d="M1346.26 1016.04C1347.27 1001.44 1344.17 986.818 1344.09 972.107C1343.91 938.835 1342.4 602.935 1344.14 599.613C1344.76 598.437 1347.47 598.016 1348.72 597.612C1349.48 640.085 1348.84 682.658 1348.81 725.142L1349.08 951.671C1349.11 959.707 1350.89 1019.03 1349.63 1021.2C1347.77 1019.73 1347.17 1018.14 1346.26 1016.04Z" transform="scale(1.01033 1.01042)"/><path fill="#151414" fill-opacity=".012" d="M398.938 875.31C407.714 896.596 404.571 951.049 404.005 974.854C403.72 986.791 402.14 999.081 405.209 1010.72C403.621 1009.9 401.763 1009.1 400.497 1007.81C400.239 1007.55 399.334 1006.46 399.247 1006.26C397.442 1001.99 398.76 889.694 398.938 875.31Z" transform="scale(1.01033 1.01042)"/><path fill="#212120" fill-opacity=".027" d="M2317.98 668.167C2320.82 665.079 2325.25 654.528 2325.11 650.186C2325.1 649.894 2325.02 649.608 2324.98 649.318C2327.95 653.784 2332.75 664.978 2331.75 670.314C2331.69 670.609 2331.57 670.885 2331.47 671.171C2329.25 670.429 2326.45 666.91 2324.56 666.599C2324.18 666.536 2322.37 668.245 2321.81 668.379C2320.89 668.598 2318.99 668.223 2317.98 668.167Z" transform="scale(1.01033 1.01042)"/><path fill="#FEFDFE" d="M463.454 1086.02C466.523 1084.66 470.111 1086.05 471.469 1089.12C472.827 1092.19 471.44 1095.77 468.371 1097.13C465.303 1098.49 461.715 1097.1 460.357 1094.03C458.999 1090.97 460.386 1087.38 463.454 1086.02Z" transform="scale(1.01033 1.01042)"/><path fill="#FEFDFE" fill-opacity=".988" d="M500.945 1106.86C503.033 1106.33 505.243 1106.98 506.71 1108.56C508.178 1110.13 508.668 1112.38 507.989 1114.43C507.31 1116.47 505.57 1117.98 503.451 1118.37C500.325 1118.94 497.309 1116.93 496.633 1113.82C495.957 1110.72 497.864 1107.64 500.945 1106.86Z" transform="scale(1.01033 1.01042)"/><path fill="#FEFDFE" d="M582.053 1157.64C579.036 1159.32 578.409 1159.7 574.995 1159.58C572.555 1157.97 572.208 1157.74 570.921 1154.95C571.276 1152.22 571.488 1151.81 573.183 1149.63C576.754 1148.33 578.11 1148.8 581.919 1149.46C582.384 1152.43 582.567 1154.67 582.053 1157.64Z" transform="scale(1.01033 1.01042)"/><path fill="#FEFDFE" fill-opacity=".984" d="M425.084 1064.49C426.534 1064.59 428.123 1064.64 429.534 1064.99C431.826 1065.57 432.613 1066.57 433.837 1068.47C434.187 1071.98 432.988 1074.52 431.697 1077.69C428.455 1077.11 426.295 1076.54 424.163 1073.94C423.081 1070.52 424.149 1067.79 425.084 1064.49Z" transform="scale(1.01033 1.01042)"/><path fill="#FEFDFE" fill-opacity=".98" d="M537.34 1127.97C540.21 1126.95 543.37 1128.37 544.53 1131.18C545.689 1134 544.442 1137.22 541.692 1138.53C539.782 1139.43 537.528 1139.21 535.831 1137.95C534.135 1136.69 533.272 1134.6 533.588 1132.51C533.904 1130.42 535.347 1128.67 537.34 1127.97Z" transform="scale(1.01033 1.01042)"/><path fill="#FEFDFE" fill-opacity=".961" d="M752.023 501.478C755.679 501.699 760.927 503.277 763.438 506.086C765.6 508.505 765.405 510.041 765.423 513.049C762.092 513.094 758.24 511.811 755.673 509.651C752.862 507.286 752.271 505.032 752.023 501.478Z" transform="scale(1.01033 1.01042)"/><path fill="#FEFDFE" fill-opacity=".965" d="M799.451 527.94C802.66 528.691 807.097 529.768 809.469 532.213C811.623 534.433 811.449 535.973 811.545 538.83C807.204 538.598 802.894 538.019 799.714 534.841C798.637 531.821 798.908 531.007 799.451 527.94Z" transform="scale(1.01033 1.01042)"/><path fill="#FEFDFE" fill-opacity=".949" d="M776.155 514.697C779.448 515.658 784.861 517.269 787.034 520.059C788.861 522.404 788.43 523.724 788.011 526.395C787.641 526.365 787.271 526.346 786.902 526.305C783.774 525.959 778.748 524.215 776.888 521.504C775.167 518.996 775.685 517.437 776.155 514.697Z" transform="scale(1.01033 1.01042)"/><path fill="#FEFDFE" fill-opacity=".98" d="M731.11 488.868C734.958 489.671 738.696 490.704 741.542 493.504C742.615 496.705 742.301 496.918 741.218 499.953C737.118 498.859 733.064 497.521 730.099 494.392C729.386 491.386 729.516 491.545 731.11 488.868Z" transform="scale(1.01033 1.01042)"/><path fill="#FEFDFE" fill-opacity=".976" d="M844.22 554.685C847.633 555.216 851.916 556.175 854.653 558.403C856.967 560.288 857.308 561.427 857.667 564.287C856.148 564.534 854.533 564.822 852.99 564.758C850.61 564.658 847.371 563.489 845.833 561.576C843.895 559.167 844.137 557.548 844.22 554.685Z" transform="scale(1.01033 1.01042)"/><path fill="#151414" fill-opacity=".031" d="M849.245 588.146L866.997 598.842C864.063 599.273 862.251 598.84 860.41 601.261L860.006 607.174C856.139 600.933 852.412 594.786 849.245 588.146Z" transform="scale(1.01033 1.01042)"/><path fill="#FEFDFE" fill-opacity=".945" d="M821.463 541.751C824.72 541.843 829.219 543.135 831.612 545.454C833.988 547.757 833.909 549.311 834.12 552.406C830.537 552.431 825.976 551.672 823.475 548.782C821.304 546.273 821.416 544.865 821.463 541.751Z" transform="scale(1.01033 1.01042)"/><path fill="#151414" fill-opacity=".012" d="M581.919 1149.46C584.829 1149.69 585.786 1149.95 588.045 1151.79L588.735 1154.13C587.553 1156.25 587.531 1156.8 585.068 1157.42C584.182 1157.64 582.942 1157.6 582.053 1157.64C582.567 1154.67 582.384 1152.43 581.919 1149.46Z" transform="scale(1.01033 1.01042)"/></svg>